<svg width="99" height="79" viewBox="0 0 99 79" fill="none" xmlns="http://www.w3.org/2000/svg">
<path d="M48.1279 55.4642C46.9334 54.8406 45.6324 54.4128 44.2818 54.1994C42.3822 53.876 40.4535 53.7236 38.5225 53.7445C37.9463 53.7906 37.3662 53.7707 36.7952 53.6853L49.6643 24.8318L62.0882 52.6753C60.161 53.1688 58.3058 53.8793 56.5638 54.7909C54.1955 55.9965 49.8992 56.3514 48.1279 55.4642Z" fill="#F7F4F0"/>
<path d="M59.9107 56.7472C58.9321 57.0065 57.9926 57.3387 57.0677 57.6571C55.2719 58.285 53.5789 58.881 51.7978 58.972C50.0166 59.063 48.2991 58.6535 46.4397 58.2213C45.461 57.9938 44.4824 57.7663 43.4646 57.6025C42.4468 57.4388 41.5073 57.3705 40.5287 57.2886C38.8371 57.2205 37.1616 56.9529 35.5425 56.4924L36.1737 55.0866C37.7752 55.5527 39.4346 55.8249 41.111 55.8964C42.026 55.9692 42.8872 56.0375 43.7337 56.1694C44.5803 56.3014 45.5198 56.5197 46.3907 56.7245C47.1834 56.911 47.9908 57.0975 48.808 57.2386L48.9597 57.2659H49.038C49.6652 57.3695 50.2998 57.4303 50.9365 57.4479C51.1959 57.4479 51.4552 57.4479 51.7146 57.4479C53.5446 57.3523 55.2768 56.7472 56.9454 56.1603C57.7773 55.8691 58.6385 55.5689 59.485 55.3459C60.3315 55.123 61.2417 54.9456 62.1175 54.7818L62.9641 54.6226L63.5708 55.9874L62.8711 56.1194C61.8925 56.3014 60.8845 56.4879 59.9107 56.7472Z" fill="#F7F4F0"/>
<path d="M64.662 55.4961L49.6643 21.7972L34.4073 56.0239C34.3087 56.2553 34.2621 56.5031 34.2706 56.7519C34.2791 57.0007 34.3424 57.2453 34.4566 57.4704C34.5708 57.6956 34.7335 57.8966 34.9346 58.0609C35.1357 58.2253 35.3709 58.3496 35.6257 58.426C37.1677 58.8763 38.7708 59.1199 40.3868 59.1494C41.2761 59.1711 42.1618 59.2639 43.034 59.427H43.127C44.0518 59.5725 45.006 59.7955 45.9259 60.0093C47.8832 60.4643 49.8405 60.9192 51.9152 60.8191C53.9899 60.719 55.9227 60.0412 57.7871 59.3906C58.7217 59.063 59.5927 58.7582 60.4783 58.5216C61.364 58.285 62.3426 58.103 63.2773 57.9256H63.3311C63.601 57.8622 63.8532 57.7461 64.071 57.5848C64.2888 57.4236 64.467 57.2211 64.5939 56.9907C64.7208 56.7603 64.7934 56.5075 64.8068 56.2489C64.8203 55.9904 64.7742 55.7322 64.6718 55.4916L64.662 55.4961ZM62.0882 52.6754C60.161 53.1689 58.3058 53.8793 56.5638 54.7909C54.1954 55.9966 49.8992 56.3514 48.1279 55.4643C46.9334 54.8406 45.6324 54.4128 44.2818 54.1995C42.3822 53.876 40.4535 53.7236 38.5225 53.7445C37.9463 53.7906 37.3662 53.7707 36.7952 53.6854L49.6643 24.8318L62.0882 52.6754ZM63.5562 55.9875L62.8564 56.1194C61.8778 56.3014 60.8992 56.4879 59.9205 56.7472C58.9419 57.0066 58.0024 57.3387 57.0775 57.6572C55.2817 58.285 53.5887 58.881 51.8076 58.972C50.0264 59.063 48.3089 58.6535 46.4495 58.2213C45.4708 57.9938 44.4922 57.7664 43.4744 57.6026C42.4566 57.4388 41.5171 57.3705 40.5385 57.2886C38.8469 57.2205 37.1714 56.9529 35.5523 56.4925L36.1835 55.0866C37.785 55.5527 39.4444 55.8249 41.1208 55.8965C42.0358 55.9693 42.897 56.0375 43.7435 56.1694C44.5901 56.3014 45.5296 56.5198 46.4005 56.7245C47.1933 56.911 48.0006 57.0976 48.8178 57.2386L48.9695 57.2659H49.0478C49.675 57.3695 50.3096 57.4303 50.9463 57.4479C51.2057 57.4479 51.465 57.4479 51.7244 57.4479C53.5544 57.3523 55.2866 56.7472 56.9552 56.1603C57.7871 55.8692 58.6483 55.5689 59.4948 55.346C60.3413 55.123 61.2515 54.9456 62.1273 54.7818L62.9739 54.6226L63.5562 55.9875Z" fill="#FEA900"/>
<path d="M46.9583 44.7181C46.9636 46.0165 46.4148 47.2638 45.4324 48.1866C44.45 49.1094 43.1141 49.6323 41.7177 49.6407C40.7355 49.6455 39.7718 49.3915 38.9384 48.9082L42.9263 39.9728C44.0717 40.2318 45.0908 40.8397 45.8215 41.6996C46.5522 42.5596 46.9524 43.6221 46.9583 44.7181Z" fill="#A31113"/>
<path d="M57.8653 47.1339C58.4187 47.0166 58.9889 46.9843 59.5535 47.0384L62.0686 52.6753C60.1414 53.1689 58.2862 53.8793 56.5442 54.7909C56.1262 55.001 55.689 55.1761 55.2377 55.3141C54.5834 54.6902 54.1203 53.9151 53.8962 53.069C53.6721 52.2229 53.6953 51.3365 53.9632 50.5015C54.2311 49.6665 54.7341 48.9132 55.4202 48.3195C56.1062 47.7259 56.9504 47.3134 57.8653 47.1248V47.1339Z" fill="#A31113"/>
<path d="M50.2271 38.3258C49.9595 37.2213 50.1104 36.0647 50.6543 35.0516C51.1982 34.0386 52.1016 33.2313 53.2119 32.7662L57.2488 41.8199C57.0182 41.9045 56.781 41.973 56.5393 42.0247C55.1748 42.3114 53.7436 42.083 52.5601 41.3895C51.3766 40.696 50.5375 39.5941 50.2271 38.3258Z" fill="#A31113"/>
<path d="M41.0473 46.5789C41.1418 46.5789 41.2353 46.5962 41.3226 46.6298C41.4099 46.6634 41.4892 46.7126 41.5559 46.7747C41.6227 46.8368 41.6757 46.9106 41.7119 46.9917C41.748 47.0729 41.7666 47.1598 41.7666 47.2476C41.7666 47.3355 41.748 47.4224 41.7119 47.5036C41.6757 47.5847 41.6227 47.6584 41.5559 47.7205C41.4892 47.7827 41.4099 47.8319 41.3226 47.8655C41.2353 47.8991 41.1418 47.9164 41.0473 47.9164C40.8565 47.9164 40.6736 47.846 40.5387 47.7205C40.4038 47.5951 40.328 47.425 40.328 47.2476C40.328 47.0703 40.4038 46.9002 40.5387 46.7747C40.6736 46.6493 40.8565 46.5789 41.0473 46.5789Z" fill="#F7F4F0"/>
<path d="M42.1434 44.3131C42.1111 44.3087 42.0801 44.2983 42.0522 44.2826C42.0242 44.2669 42 44.2461 41.9808 44.2215C41.9617 44.1969 41.948 44.169 41.9406 44.1394C41.9333 44.1098 41.9323 44.0792 41.9379 44.0493C41.9427 44.0191 41.9538 43.9901 41.9707 43.9639C41.9876 43.9377 42.0098 43.9149 42.0362 43.8967C42.0625 43.8785 42.0925 43.8654 42.1243 43.858C42.1562 43.8506 42.1893 43.8491 42.2217 43.8536C42.2858 43.8648 42.3429 43.8983 42.3811 43.9474C42.4193 43.9965 42.4358 44.0574 42.4272 44.1175C42.4224 44.1477 42.4113 44.1767 42.3944 44.2029C42.3776 44.2291 42.3553 44.2519 42.329 44.2701C42.3026 44.2882 42.2726 44.3014 42.2408 44.3088C42.209 44.3162 42.1759 44.3177 42.1434 44.3131Z" fill="#F7F4F0"/>
<path d="M43.2738 47.4251C43.2383 47.4245 43.2033 47.4169 43.1712 47.4027C43.1391 47.3886 43.1106 47.3682 43.0876 47.343C43.0647 47.3177 43.0478 47.2883 43.0381 47.2565C43.0283 47.2247 43.0261 47.1913 43.0313 47.1587C43.0366 47.126 43.0493 47.0947 43.0686 47.067C43.0879 47.0393 43.1134 47.0157 43.1433 46.9978C43.1732 46.98 43.2069 46.9683 43.242 46.9635C43.2772 46.9587 43.313 46.961 43.3472 46.9701C43.4053 46.9857 43.4554 47.0204 43.4881 47.0677C43.5208 47.1151 43.5339 47.1719 43.5249 47.2275C43.5159 47.2831 43.4855 47.3339 43.4393 47.3702C43.3931 47.4066 43.3343 47.4261 43.2738 47.4251Z" fill="#F7F4F0"/>
<path d="M44.9277 44.0857C44.8539 44.0866 44.7816 44.0671 44.7198 44.0296C44.658 43.9922 44.6095 43.9385 44.5806 43.8754C44.5517 43.8123 44.5437 43.7427 44.5575 43.6753C44.5713 43.6079 44.6063 43.5459 44.6581 43.4971C44.7099 43.4482 44.7761 43.4149 44.8484 43.4011C44.9207 43.3874 44.9957 43.394 45.0639 43.42C45.1322 43.4461 45.1905 43.4904 45.2316 43.5473C45.2727 43.6043 45.2947 43.6713 45.2947 43.7399C45.2947 43.8308 45.2562 43.9181 45.1875 43.9828C45.1188 44.0475 45.0255 44.0845 44.9277 44.0857Z" fill="#F7F4F0"/>
<path d="M42.1777 45.0138C42.2611 45.0129 42.3429 45.0351 42.4128 45.0775C42.4826 45.12 42.5373 45.1808 42.5699 45.2522C42.6025 45.3236 42.6116 45.4024 42.5959 45.4786C42.5802 45.5548 42.5405 45.6249 42.4818 45.6801C42.4232 45.7353 42.3482 45.773 42.2665 45.7885C42.1847 45.8039 42.0998 45.7965 42.0227 45.767C41.9455 45.7375 41.8795 45.6874 41.833 45.6229C41.7865 45.5585 41.7617 45.4827 41.7617 45.4051C41.7617 45.3021 41.8054 45.2033 41.8832 45.13C41.9611 45.0568 42.0669 45.015 42.1777 45.0138Z" fill="#F7F4F0"/>
<path d="M43.3129 43.0984C43.1747 43.0984 43.0396 43.0604 42.9246 42.9891C42.8097 42.9178 42.72 42.8165 42.6669 42.6978C42.6138 42.5792 42.5996 42.4487 42.6263 42.3226C42.6529 42.1965 42.719 42.0806 42.8164 41.9894C42.9138 41.8982 43.038 41.8359 43.1734 41.8103C43.3088 41.7847 43.4493 41.7969 43.5773 41.8455C43.7052 41.894 43.8148 41.9767 43.8923 42.0831C43.9698 42.1895 44.0116 42.3148 44.0126 42.4433C44.0126 42.6163 43.939 42.7822 43.8079 42.9049C43.6769 43.0277 43.4989 43.0972 43.3129 43.0984Z" fill="#F7F4F0"/>
<path d="M44.7711 45.7053C44.7711 45.7788 44.7553 45.8515 44.7247 45.9192C44.694 45.9869 44.6491 46.0482 44.5925 46.0995C44.536 46.1508 44.469 46.1911 44.3954 46.2179C44.3219 46.2448 44.2433 46.2577 44.1643 46.2558C44.0067 46.2558 43.8554 46.1976 43.744 46.0939C43.6325 45.9903 43.5698 45.8497 43.5698 45.7031C43.5698 45.5565 43.6325 45.4159 43.744 45.3122C43.8554 45.2085 44.0067 45.1503 44.1643 45.1503C44.2436 45.1491 44.3222 45.1625 44.3958 45.1899C44.4694 45.2172 44.5363 45.2579 44.5928 45.3096C44.6493 45.3613 44.6941 45.4229 44.7247 45.4908C44.7553 45.5587 44.7711 45.6317 44.7711 45.7053Z" fill="#F7F4F0"/>
<path d="M57.2145 53.476C57.0847 53.5038 56.9484 53.4825 56.8355 53.4168C56.7227 53.3511 56.6425 53.2464 56.6126 53.1257C56.5828 53.0051 56.6057 52.8783 56.6764 52.7734C56.747 52.6684 56.8596 52.5939 56.9894 52.5661C57.0544 52.55 57.1223 52.5465 57.1888 52.5559C57.2553 52.5653 57.319 52.5873 57.376 52.6206C57.4329 52.6539 57.4818 52.6978 57.5197 52.7495C57.5576 52.8012 57.5836 52.8595 57.5962 52.921C57.612 52.9808 57.6145 53.043 57.6037 53.1038C57.5929 53.1645 57.5689 53.2226 57.5332 53.2745C57.4975 53.3264 57.4509 53.3711 57.3961 53.4057C57.3413 53.4403 57.2795 53.4643 57.2145 53.476Z" fill="#F7F4F0"/>
<path d="M57.376 50.81C57.2943 50.8276 57.2087 50.8222 57.1303 50.7943C57.052 50.7664 56.9844 50.7173 56.9362 50.6534C56.888 50.5895 56.8615 50.5137 56.86 50.4357C56.8586 50.3577 56.8822 50.281 56.928 50.2156C56.9737 50.1502 57.0394 50.099 57.1167 50.0686C57.194 50.0381 57.2793 50.0299 57.3616 50.0449C57.444 50.0599 57.5196 50.0974 57.5789 50.1527C57.6381 50.2079 57.6782 50.2784 57.6941 50.355C57.7146 50.4544 57.6929 50.5573 57.6336 50.6421C57.5743 50.7269 57.482 50.7871 57.376 50.81Z" fill="#F7F4F0"/>
<path d="M58.4378 49.0857C58.3699 49.1003 58.2988 49.0958 58.2335 49.0728C58.1683 49.0498 58.1119 49.0094 58.0714 48.9565C58.031 48.9037 58.0083 48.8409 58.0063 48.776C58.0042 48.7112 58.023 48.6473 58.06 48.5923C58.0971 48.5374 58.1509 48.494 58.2146 48.4675C58.2783 48.441 58.349 48.4327 58.4178 48.4437C58.4866 48.4546 58.5503 48.4842 58.6009 48.5289C58.6515 48.5735 58.6867 48.6311 58.7021 48.6944C58.7129 48.7363 58.7146 48.7797 58.7072 48.8222C58.6997 48.8646 58.6831 48.9053 58.6585 48.9417C58.6339 48.9782 58.6017 49.0097 58.5638 49.0344C58.5259 49.0591 58.4831 49.0766 58.4378 49.0857Z" fill="#F7F4F0"/>
<path d="M55.7172 51.8473C55.653 51.8609 55.5856 51.8504 55.5297 51.818C55.4738 51.7856 55.4339 51.734 55.4188 51.6744C55.4116 51.6445 55.4108 51.6136 55.4165 51.5834C55.4222 51.5533 55.4343 51.5245 55.452 51.4987C55.4698 51.4729 55.4928 51.4506 55.5199 51.4331C55.5469 51.4156 55.5774 51.4033 55.6096 51.3969C55.6411 51.3902 55.6737 51.3893 55.7055 51.3944C55.7374 51.3995 55.7678 51.4103 55.7951 51.4264C55.8224 51.4425 55.846 51.4634 55.8646 51.488C55.8831 51.5126 55.8962 51.5404 55.9032 51.5697C55.9179 51.6295 55.9065 51.6921 55.8717 51.7441C55.8369 51.7961 55.7814 51.8332 55.7172 51.8473Z" fill="#F7F4F0"/>
<path d="M58.3547 52.0657C58.3219 52.0675 58.2891 52.0633 58.258 52.0534C58.227 52.0434 58.1984 52.0278 58.1738 52.0075C58.1493 51.9872 58.1293 51.9626 58.115 51.9351C58.1007 51.9076 58.0924 51.8778 58.0905 51.8473C58.0877 51.8015 58.0995 51.756 58.1245 51.7165C58.1495 51.6769 58.1866 51.6452 58.231 51.6252C58.2754 51.6052 58.3251 51.5979 58.374 51.6043C58.4228 51.6106 58.4686 51.6302 58.5054 51.6607C58.5423 51.6911 58.5686 51.7311 58.5811 51.7754C58.5935 51.8198 58.5916 51.8666 58.5755 51.9099C58.5593 51.9533 58.5298 51.9912 58.4905 52.0189C58.4512 52.0466 58.404 52.0629 58.3547 52.0657Z" fill="#F7F4F0"/>
<path d="M60.7719 51.9337C60.7364 51.9423 60.6993 51.9436 60.6633 51.9373C60.6272 51.9311 60.593 51.9176 60.5633 51.8977C60.5335 51.8778 60.5087 51.8521 60.4909 51.8223C60.473 51.7925 60.4624 51.7594 60.4598 51.7254C60.4573 51.6914 60.4628 51.6573 60.476 51.6255C60.4893 51.5937 60.5099 51.565 60.5364 51.5414C60.563 51.5178 60.5947 51.5 60.6295 51.4892C60.6643 51.4784 60.7012 51.4748 60.7376 51.4787C60.7954 51.485 60.8491 51.5098 60.8893 51.549C60.9294 51.5881 60.9537 51.639 60.9577 51.693C60.9618 51.747 60.9454 51.8006 60.9115 51.8445C60.8776 51.8885 60.8282 51.92 60.7719 51.9337Z" fill="#F7F4F0"/>
<path d="M59.6024 52.0884C59.7088 52.0668 59.8201 52.0853 59.9119 52.1399C60.0036 52.1945 60.0683 52.2807 60.0917 52.3796C60.1099 52.4313 60.1163 52.486 60.1105 52.5402C60.1046 52.5943 60.0867 52.6467 60.0579 52.6941C60.029 52.7414 59.9898 52.7827 59.9429 52.8151C59.8959 52.8476 59.8422 52.8706 59.7851 52.8827C59.728 52.8948 59.6689 52.8956 59.6114 52.8853C59.554 52.8749 59.4995 52.8535 59.4514 52.8224C59.4034 52.7913 59.3628 52.7512 59.3324 52.7048C59.3019 52.6583 59.2822 52.6064 59.2746 52.5525C59.2617 52.5019 59.2601 52.4494 59.2698 52.3983C59.2795 52.3471 59.3003 52.2983 59.331 52.2548C59.3617 52.2114 59.4016 52.1742 59.4483 52.1456C59.4949 52.117 59.5474 52.0976 59.6024 52.0884Z" fill="#F7F4F0"/>
<path d="M59.7101 50.769C59.5291 50.807 59.3392 50.7766 59.1823 50.6845C59.0254 50.5923 58.9143 50.446 58.8734 50.2777C58.8325 50.1093 58.8652 49.9328 58.9643 49.7869C59.0634 49.641 59.2208 49.5377 59.4019 49.4997C59.4915 49.4809 59.5843 49.4786 59.6748 49.4932C59.7654 49.5077 59.852 49.5386 59.9297 49.5842C60.0074 49.6299 60.0747 49.6893 60.1277 49.7591C60.1807 49.8289 60.2184 49.9077 60.2386 49.991C60.2588 50.0744 60.2612 50.1606 60.2456 50.2448C60.23 50.329 60.1967 50.4096 60.1477 50.4818C60.0986 50.554 60.0347 50.6166 59.9596 50.6659C59.8846 50.7152 59.7998 50.7502 59.7101 50.769Z" fill="#F7F4F0"/>
<path d="M55.179 39.1767C55.3177 39.1476 55.4626 39.1574 55.5953 39.2048C55.7281 39.2523 55.8427 39.3352 55.9248 39.4432C56.0068 39.5512 56.0526 39.6794 56.0563 39.8116C56.06 39.9438 56.0215 40.074 55.9456 40.1858C55.8698 40.2977 55.76 40.3861 55.6301 40.4399C55.5002 40.4938 55.356 40.5106 55.2159 40.4883C55.0757 40.466 54.9458 40.4055 54.8425 40.3146C54.7393 40.2237 54.6674 40.1063 54.6358 39.9774C54.6149 39.8917 54.6123 39.8029 54.6282 39.7162C54.6442 39.6296 54.6784 39.5467 54.7288 39.4723C54.7793 39.3979 54.845 39.3335 54.9222 39.2828C54.9995 39.2321 55.0867 39.196 55.179 39.1767Z" fill="#F7F4F0"/>
<path d="M53.5348 38.8081C53.4412 38.8246 53.3445 38.8154 53.2565 38.7815C53.1685 38.7476 53.093 38.6906 53.0394 38.6174C52.9857 38.5442 52.9562 38.4581 52.9544 38.3695C52.9527 38.281 52.9788 38.1939 53.0295 38.1189C53.0802 38.0439 53.1533 37.9844 53.24 37.9475C53.3266 37.9106 53.4229 37.8981 53.517 37.9113C53.6112 37.9246 53.6992 37.9632 53.7701 38.0223C53.8411 38.0814 53.8919 38.1584 53.9165 38.244C53.9338 38.3044 53.9375 38.3675 53.9274 38.4294C53.9174 38.4912 53.8937 38.5505 53.8578 38.6034C53.822 38.6563 53.7749 38.7018 53.7193 38.7371C53.6637 38.7723 53.6009 38.7965 53.5348 38.8081Z" fill="#F7F4F0"/>
<path d="M53.7012 36.1421C53.6195 36.1597 53.5339 36.1543 53.4555 36.1264C53.3772 36.0985 53.3096 36.0494 53.2614 35.9855C53.2132 35.9216 53.1867 35.8458 53.1852 35.7678C53.1838 35.6898 53.2074 35.6131 53.2532 35.5477C53.2989 35.4823 53.3646 35.4311 53.4419 35.4007C53.5192 35.3702 53.6045 35.362 53.6868 35.377C53.7692 35.392 53.8448 35.4295 53.9041 35.4848C53.9633 35.54 54.0034 35.6105 54.0193 35.6871C54.0398 35.7865 54.0181 35.8894 53.9588 35.9742C53.8995 36.059 53.8072 36.1192 53.7012 36.1421Z" fill="#F7F4F0"/>
<path d="M52.0375 37.1839C52.0054 37.1905 51.9722 37.1911 51.9398 37.1858C51.9074 37.1804 51.8764 37.1692 51.8487 37.1527C51.821 37.1362 51.7971 37.1148 51.7782 37.0898C51.7594 37.0647 51.7461 37.0364 51.739 37.0065C51.7319 36.9766 51.7313 36.9458 51.737 36.9156C51.7428 36.8855 51.7549 36.8568 51.7726 36.831C51.7903 36.8052 51.8133 36.783 51.8403 36.7655C51.8673 36.748 51.8977 36.7356 51.9298 36.729C51.9617 36.7223 51.9946 36.7217 52.0267 36.727C52.0588 36.7324 52.0895 36.7437 52.1168 36.7602C52.1442 36.7767 52.1677 36.7982 52.186 36.8233C52.2043 36.8484 52.217 36.8767 52.2234 36.9064C52.2381 36.9661 52.2268 37.0288 52.192 37.0808C52.1571 37.1328 52.1016 37.1699 52.0375 37.1839Z" fill="#F7F4F0"/>
<path d="M54.6553 37.416C54.5894 37.4185 54.5251 37.3971 54.4758 37.3564C54.4265 37.3157 54.3961 37.2587 54.3911 37.1976C54.3978 37.1438 54.4246 37.094 54.4666 37.0566C54.5087 37.0192 54.5635 36.9967 54.6216 36.9929C54.6796 36.9892 54.7373 37.0044 54.7845 37.0359C54.8318 37.0675 54.8657 37.1134 54.8804 37.1657C54.8859 37.2266 54.8653 37.287 54.8232 37.3338C54.781 37.3807 54.7207 37.4102 54.6553 37.416Z" fill="#F7F4F0"/>
<path d="M53.5349 39.9137C53.5677 39.9118 53.6005 39.916 53.6316 39.926C53.6626 39.936 53.6912 39.9516 53.7158 39.9719C53.7403 39.9922 53.7603 40.0168 53.7746 40.0442C53.7889 40.0717 53.7972 40.1016 53.7991 40.1321C53.8018 40.1623 53.7979 40.1928 53.7877 40.2216C53.7775 40.2504 53.7613 40.2771 53.7398 40.3C53.7184 40.3229 53.6922 40.3416 53.6629 40.3549C53.6336 40.3683 53.6017 40.376 53.5691 40.3778C53.5366 40.3802 53.5039 40.3766 53.4728 40.3672C53.4418 40.3577 53.4132 40.3425 53.3885 40.3226C53.3639 40.3027 53.3438 40.2784 53.3295 40.2511C53.3151 40.2239 53.3068 40.1942 53.3049 40.1639C53.3022 40.1334 53.3061 40.1028 53.3162 40.0736C53.3263 40.0445 53.3425 40.0176 53.3639 39.9943C53.3853 39.9711 53.4114 39.952 53.4407 39.9381C53.4701 39.9243 53.5021 39.916 53.5349 39.9137Z" fill="#F7F4F0"/>
<path d="M52.3898 51.7699C52.4338 52.9801 50.7408 53.9537 50.7408 53.9537C50.7408 53.9537 49.0966 55.0092 47.9223 54.486C46.7479 53.9628 46.1803 53.0074 46.5864 52.2749C46.5998 52.251 46.6209 52.2314 46.6466 52.2189C46.6724 52.2064 46.7017 52.2016 46.7305 52.2051C46.7593 52.2085 46.7863 52.2202 46.8078 52.2383C46.8293 52.2565 46.8442 52.2804 46.8506 52.3068C46.8635 52.4234 46.9192 52.5323 47.0083 52.6151C47.0974 52.698 47.2146 52.7498 47.34 52.7617C47.9516 52.8209 48.5926 52.5661 48.2599 51.8518C47.9272 51.1375 46.332 49.7635 46.332 49.7635C46.332 49.7635 45.3533 49.1766 46.7772 48.3213C48.2012 47.466 48.3773 48.5215 48.3773 48.5215C48.3773 48.5215 49.1064 50.446 49.6594 51.0056C50.2123 51.5652 50.7212 51.1193 50.912 50.5779C50.951 50.4674 50.9486 50.3478 50.905 50.2387C50.8615 50.1296 50.7794 50.0375 50.6722 49.9774C50.6492 49.961 50.6321 49.9385 50.6233 49.9128C50.6144 49.8871 50.6142 49.8595 50.6228 49.8337C50.6313 49.808 50.6481 49.7852 50.671 49.7686C50.6938 49.752 50.7216 49.7423 50.7505 49.7408C51.6362 49.6998 52.3457 50.5142 52.3898 51.7699Z" fill="#B5855A"/>
<path d="M48.2991 32.334C48.4806 32.7694 48.5113 33.2465 48.3872 33.6989C48.8127 34.0554 49.0927 34.5375 49.1799 35.0638C49.261 35.5243 49.1765 35.9968 48.9394 36.4081C48.7023 36.8194 48.3259 37.1465 47.8685 37.3386C47.5205 37.4651 47.1422 37.5019 46.7736 37.445C46.405 37.3881 46.0597 37.2398 45.7742 37.0156C45.6225 37.4094 45.3334 37.7447 44.953 37.9682C44.5726 38.1916 44.1227 38.2903 43.675 38.2485L43.9882 37.5479C44.1963 37.53 44.3964 37.4643 44.5705 37.3568C44.8547 37.1689 45.0576 36.8931 45.143 36.5788C45.167 36.4905 45.2164 36.41 45.2859 36.3459C45.3554 36.2818 45.4425 36.2366 45.5376 36.2151C45.6327 36.1935 45.7324 36.1965 45.8258 36.2238C45.9192 36.251 46.0029 36.3014 46.0678 36.3695C46.2458 36.5701 46.4868 36.7139 46.757 36.7808C47.0273 36.8477 47.3133 36.8343 47.5749 36.7426C47.8776 36.6083 48.1239 36.3846 48.2753 36.1064C48.4267 35.8281 48.4747 35.5111 48.4117 35.2048C48.3511 34.8063 48.133 34.443 47.8 34.1857C47.7118 34.1178 47.6471 34.0271 47.6141 33.9252C47.581 33.8232 47.581 33.7144 47.6141 33.6125C47.7308 33.2785 47.7221 32.9176 47.5896 32.5888C47.5103 32.3832 47.3806 32.1977 47.2107 32.0468C47.0408 31.896 46.8355 31.7841 46.611 31.7198L46.9046 31.0647C47.2244 31.1657 47.5158 31.3322 47.7571 31.5519C47.9985 31.7716 48.1837 32.0389 48.2991 32.334Z" fill="#E31B27"/>
<path d="M54.2297 48.3896L47.8685 43.7263C47.8446 43.7094 47.8248 43.6882 47.81 43.664C47.7953 43.6397 47.7861 43.6129 47.7829 43.5853C47.7797 43.5576 47.7826 43.5296 47.7914 43.503C47.8002 43.4764 47.8148 43.4517 47.8342 43.4306C48.57 42.7131 49.567 42.2763 50.6305 42.2055C51.6941 42.1348 52.7478 42.4351 53.5859 43.0479C54.4241 43.6606 54.9866 44.5419 55.1635 45.5195C55.3404 46.4971 55.1191 47.501 54.5428 48.335C54.5266 48.3582 54.5054 48.3782 54.4807 48.3936C54.4559 48.409 54.4281 48.4195 54.3988 48.4246C54.3695 48.4297 54.3394 48.4293 54.3104 48.4233C54.2813 48.4172 54.2538 48.4058 54.2297 48.3896Z" fill="#E31B27"/>
<path d="M54.0682 47.0065C54.0007 47.0177 53.9311 47.0114 53.8671 46.9881C53.8032 46.9648 53.7475 46.9255 53.7061 46.8746C52.6265 45.5453 51.1954 44.4983 49.5518 43.8355C49.4885 43.8103 49.434 43.7694 49.3943 43.7172C49.3545 43.665 49.3311 43.6036 49.3267 43.5397C49.3236 43.4765 49.3387 43.4136 49.3705 43.3576C49.4024 43.3015 49.4497 43.2545 49.5077 43.2213C50.0809 42.8922 50.7488 42.7347 51.4213 42.7701C52.0938 42.8056 52.7384 43.0321 53.2679 43.4192C53.7974 43.8063 54.1862 44.3353 54.3819 44.9345C54.5775 45.5338 54.5705 46.1745 54.3618 46.7699C54.3401 46.8302 54.3015 46.8839 54.2498 46.9256C54.1982 46.9672 54.1355 46.9951 54.0682 47.0065Z" fill="#F7F4F0"/>
<path d="M49.6497 44.3132C50.8175 45.1503 51.9788 45.9996 53.1336 46.861C52.2102 45.763 51.0149 44.8889 49.6497 44.3132Z" fill="#F7F4F0"/>
<path d="M53.2265 44.9501C53.0312 45.0403 52.8239 45.106 52.61 45.1458C52.7164 44.9693 52.8481 44.8071 53.0014 44.6635C53.0231 44.6448 53.0485 44.6304 53.0762 44.621C53.104 44.6116 53.1334 44.6075 53.1629 44.6089C53.192 44.6108 53.2203 44.6187 53.2457 44.6321C53.2711 44.6455 53.293 44.664 53.3097 44.6863C53.3262 44.7068 53.3375 44.7307 53.3426 44.7559C53.3476 44.7811 53.3465 44.8071 53.3391 44.8319C53.3327 44.8569 53.3207 44.8804 53.3038 44.9008C53.2869 44.9211 53.2656 44.938 53.2412 44.9501H53.2265Z" fill="#E31B27"/>
<path d="M53.6523 45.5598C53.442 45.6143 53.2247 45.6419 53.0063 45.6417C53.149 45.488 53.3137 45.3533 53.4957 45.2413C53.5474 45.2133 53.6088 45.2051 53.6669 45.2185C53.6946 45.2258 53.7203 45.2385 53.7423 45.2557C53.7642 45.273 53.7819 45.2944 53.7942 45.3186C53.8063 45.342 53.8126 45.3677 53.8126 45.3937C53.8126 45.4197 53.8063 45.4454 53.7942 45.4688C53.7821 45.4918 53.765 45.5122 53.744 45.5287C53.7229 45.5451 53.6983 45.5573 53.6718 45.5643L53.6523 45.5598Z" fill="#E31B27"/>
<path d="M53.9508 46.1239C53.7656 46.1465 53.5781 46.1465 53.3929 46.1239C53.5287 46.0057 53.682 45.9061 53.848 45.8281C53.8701 45.8181 53.8944 45.8129 53.919 45.8129C53.9435 45.8129 53.9678 45.8181 53.9899 45.8281C54.0135 45.8373 54.0348 45.851 54.0525 45.8682C54.0702 45.8854 54.0839 45.9059 54.0927 45.9282C54.1023 45.9475 54.1073 45.9684 54.1073 45.9897C54.1073 46.0109 54.1023 46.0318 54.0927 46.0511C54.0808 46.0697 54.0645 46.0856 54.045 46.0974C54.0254 46.1092 54.0033 46.1167 53.9801 46.1193L53.9508 46.1239Z" fill="#E31B27"/>
<path d="M51.6754 43.8173C51.6266 44.014 51.6069 44.2161 51.6167 44.4178C51.7762 44.285 51.9146 44.1318 52.0277 43.9628C52.0495 43.9133 52.0495 43.8577 52.0277 43.8082C52.018 43.782 52.0026 43.7579 51.9824 43.7375C51.9622 43.7172 51.9376 43.7009 51.9103 43.6899C51.8848 43.6797 51.8573 43.6745 51.8296 43.6745C51.8018 43.6745 51.7743 43.6797 51.7488 43.6899C51.724 43.7015 51.7024 43.7182 51.6855 43.7387C51.6685 43.7592 51.6567 43.7829 51.651 43.8082L51.6754 43.8173Z" fill="#E31B27"/>
<path d="M50.9366 43.5761C50.9298 43.7798 50.9528 43.9833 51.0051 44.1812C51.1338 44.0186 51.236 43.8392 51.3085 43.6489C51.3205 43.6239 51.3267 43.5967 51.3267 43.5693C51.3267 43.5419 51.3205 43.5147 51.3085 43.4897C51.2938 43.4664 51.2741 43.4462 51.2505 43.4305C51.2268 43.4149 51.1999 43.404 51.1715 43.3987C51.1449 43.3944 51.1176 43.3955 51.0914 43.4017C51.0653 43.408 51.0409 43.4194 51.0198 43.4351C50.9978 43.4506 50.9798 43.4705 50.9671 43.4933C50.9544 43.5162 50.9473 43.5413 50.9464 43.567L50.9366 43.5761Z" fill="#E31B27"/>
<path d="M50.2809 43.4578C50.2955 43.6303 50.335 43.8001 50.3983 43.9628C50.4866 43.8105 50.554 43.6485 50.5989 43.4806C50.6097 43.46 50.6154 43.4375 50.6154 43.4146C50.6154 43.3917 50.6097 43.3692 50.5989 43.3486C50.5845 43.3292 50.5656 43.313 50.5436 43.3012C50.5216 43.2894 50.497 43.2823 50.4717 43.2804C50.4482 43.2789 50.4247 43.2822 50.4027 43.29C50.3807 43.2979 50.3608 43.3101 50.3445 43.3259C50.3289 43.3418 50.317 43.3605 50.3094 43.3808C50.3019 43.4012 50.2988 43.4227 50.3005 43.4442L50.2809 43.4578Z" fill="#E31B27"/>
<path d="M52.6785 44.3996C52.5183 44.5367 52.3389 44.653 52.1451 44.7454C52.1942 44.5493 52.2733 44.3609 52.38 44.1858C52.3944 44.1623 52.4141 44.142 52.4378 44.1263C52.4614 44.1106 52.4885 44.0998 52.517 44.0948C52.5755 44.0861 52.6352 44.0992 52.6834 44.1312C52.7047 44.1473 52.7222 44.1674 52.7348 44.1901C52.7474 44.2128 52.7549 44.2376 52.7568 44.2631C52.7557 44.3146 52.7329 44.3637 52.6932 44.3996H52.6785Z" fill="#E31B27"/>
<path d="M51.0148 30.4642C51.078 30.4754 51.1391 30.4953 51.1959 30.5233C51.2861 30.5757 51.3625 30.646 51.4197 30.7293C51.477 30.8126 51.5135 30.9068 51.5266 31.0048C51.5397 31.1029 51.5291 31.2025 51.4956 31.2963C51.4621 31.3901 51.4065 31.4757 51.3329 31.547C51.0638 31.8518 50.4619 32.0566 50.1634 31.6971C50.1475 31.6642 50.1392 31.6286 50.1392 31.5925C50.1392 31.5564 50.1475 31.5207 50.1634 31.4879C50.0268 31.5735 49.8658 31.6193 49.701 31.6193C49.5362 31.6193 49.3752 31.5735 49.2386 31.4879C49.0592 31.3611 48.9396 31.1747 48.9049 30.9677C48.8702 30.7607 48.9232 30.5492 49.0526 30.3778C49.126 30.2959 49.1652 30.3186 49.2679 30.2777C48.9695 30.0229 48.9401 29.891 48.6563 29.6817C48.6469 29.6756 48.6392 29.6674 48.6341 29.6579C48.629 29.6483 48.6265 29.6377 48.6269 29.6271C48.6213 29.6181 48.6184 29.6079 48.6184 29.5975C48.6184 29.5871 48.6213 29.5769 48.6269 29.5679C48.7346 29.4678 48.9401 29.2904 48.9792 29.3223C49.2973 29.5952 49.1016 29.8091 49.4686 30.0502C49.5086 29.9305 49.5734 29.8192 49.6594 29.7226C49.9285 29.4132 50.3787 29.4587 50.7555 29.7226C50.8785 29.8041 50.97 29.9201 51.0167 30.0536C51.0634 30.1871 51.0628 30.3311 51.0148 30.4642Z" fill="#00722A"/>
<path d="M46.8067 39.6407C46.7442 39.6272 46.6835 39.6074 46.6257 39.5815C46.5362 39.5287 46.4604 39.458 46.4037 39.3747C46.347 39.2915 46.3108 39.1975 46.2977 39.0997C46.2847 39.0019 46.295 38.9026 46.328 38.8089C46.361 38.7153 46.4158 38.6295 46.4886 38.5579C46.7529 38.2531 47.3548 38.0483 47.6581 38.4077C47.6741 38.4406 47.6823 38.4763 47.6823 38.5124C47.6823 38.5485 47.6741 38.5841 47.6581 38.617C47.7947 38.5314 47.9558 38.4856 48.1205 38.4856C48.2853 38.4856 48.4463 38.5314 48.583 38.617C48.761 38.7436 48.8797 38.9292 48.9143 39.1351C48.949 39.3411 48.8969 39.5515 48.7689 39.7226C48.6955 39.809 48.6564 39.7863 48.5536 39.8272C48.8521 40.0774 48.8814 40.2139 49.1653 40.4232C49.1747 40.4293 49.1823 40.4375 49.1874 40.447C49.1926 40.4566 49.195 40.4672 49.1946 40.4778C49.203 40.4967 49.203 40.518 49.1946 40.537C49.087 40.637 48.8766 40.8145 48.8423 40.7826C48.5193 40.5097 48.72 40.2913 48.353 40.0547C48.3148 40.1742 48.2516 40.2855 48.167 40.3823C48.097 40.4523 48.0121 40.5081 47.9179 40.5463C47.8236 40.5844 47.7218 40.6041 47.619 40.6041C47.5161 40.6041 47.4144 40.5844 47.3201 40.5463C47.2258 40.5081 47.141 40.4523 47.0709 40.3823C46.9471 40.3014 46.8545 40.1857 46.8069 40.0521C46.7593 39.9185 46.7593 39.7743 46.8067 39.6407Z" fill="#00722A"/>
<path d="M43.1221 50.86C43.1729 50.8263 43.229 50.8002 43.2885 50.7827C43.3922 50.7613 43.4996 50.7613 43.6032 50.7828C43.7069 50.8043 43.8042 50.8467 43.8882 50.907C43.9723 50.9674 44.041 51.0442 44.0896 51.132C44.1381 51.2198 44.1654 51.3164 44.1693 51.4151C44.2084 51.8063 43.9393 52.325 43.4549 52.2886C43.417 52.2812 43.3815 52.2659 43.351 52.2438C43.3204 52.2217 43.2957 52.1935 43.2787 52.1612C43.2448 52.3108 43.1639 52.4477 43.0463 52.5546C42.9288 52.6615 42.7798 52.7336 42.6181 52.7617C42.3951 52.7897 42.169 52.7368 41.9868 52.614C41.8046 52.4912 41.6802 52.3079 41.6395 52.1021C41.6395 51.9929 41.6737 51.9838 41.7178 51.8882C41.3116 51.8882 41.1893 51.8291 40.8321 51.8882C40.8222 51.8927 40.8113 51.895 40.8003 51.895C40.7893 51.895 40.7784 51.8927 40.7685 51.8882C40.7595 51.8808 40.7523 51.8717 40.7472 51.8615C40.7422 51.8513 40.7394 51.8403 40.7391 51.8291C40.7391 51.688 40.7391 51.4242 40.8027 51.4242C41.2382 51.4242 41.2627 51.688 41.6933 51.6243C41.6287 51.513 41.5888 51.3908 41.5759 51.2649C41.5367 50.8737 41.8842 50.6098 42.3686 50.5643C42.5116 50.5359 42.6606 50.5491 42.7954 50.602C42.9301 50.6548 43.0442 50.7449 43.1221 50.86Z" fill="#00722A"/>
<path d="M88.4088 52.6207C83.0872 55.8486 77.2322 58.2431 71.077 59.709C72.7096 63.2956 74.6742 66.7435 76.9489 70.0138C83.8362 68.0286 90.3476 65.0553 96.2478 61.2013C93.8904 60.4782 91.583 59.6212 89.3385 58.6353C89.0254 56.6213 88.7155 54.6165 88.4088 52.6207Z" fill="#F7F4F0"/>
<path d="M98.1023 60.8964L96.5414 60.4733C95.367 60.1548 94.1975 59.8045 93.0427 59.4224C92.4653 59.2313 91.8928 59.0265 91.3154 58.8264C90.8261 58.658 90.3368 58.476 89.823 58.2941L89.2065 55.6143C88.9863 54.618 88.7171 53.6307 88.4774 52.6344V52.5479L88.3893 52.5934C87.6945 52.9437 86.9849 53.2804 86.2803 53.6125C85.5757 53.9446 84.8711 54.2722 84.1567 54.5816C83.4422 54.891 82.7229 55.1821 81.9939 55.4642L79.8066 56.2786C76.8862 57.3441 73.8808 58.196 70.8177 58.8264L69.6727 59.0584L70.118 60.1048C70.9074 61.9246 71.785 63.7217 72.7506 65.4961C73.7292 67.2522 74.8057 68.9629 75.9507 70.6371L76.4401 71.365L77.3551 71.1012C78.231 70.8464 79.1069 70.5871 79.9681 70.2959C80.8293 70.0047 81.6856 69.6999 82.537 69.386C84.2301 68.7399 85.9133 68.0575 87.5379 67.275C89.1624 66.4924 90.7576 65.669 92.3088 64.7772C93.8599 63.8855 95.3377 62.8937 96.7812 61.87L98.1023 60.8964ZM96.057 61.2376C93.1658 63.1137 90.1211 64.7764 86.9507 66.2104C85.3359 66.9428 83.6869 67.6162 82.0183 68.2304C80.3497 68.8446 78.7105 69.3769 77.0272 69.8773C74.7861 66.6718 72.8429 63.2943 71.219 59.7818C77.2981 58.2997 83.0809 55.917 88.3453 52.7253L89.2701 58.6398V58.6762H89.3092C91.5023 59.6527 93.7555 60.508 96.057 61.2376Z" fill="#6E4115"/>
<path d="M10.6605 52.6207C15.9892 55.8516 21.8527 58.2463 28.0168 59.709C26.3744 63.2955 24.4017 66.7433 22.1204 70.0138C15.2265 68.0341 8.70824 65.0637 2.802 61.2104C5.15808 60.4881 7.46392 59.6311 9.70634 58.6444C10.0391 56.6244 10.3571 54.6165 10.6605 52.6207Z" fill="#F7F4F0"/>
<path d="M2.29796 61.8427C3.74146 62.8664 5.23389 63.84 6.76546 64.7499C8.29704 65.6599 9.91181 66.4742 11.5412 67.2477C13.1707 68.0211 14.8491 68.7126 16.5421 69.3587C17.3935 69.662 18.2499 69.9653 19.1111 70.2686C19.9723 70.5598 20.8482 70.8191 21.724 71.0739L22.6391 71.3377L23.1284 70.6098C24.2734 68.9356 25.3499 67.2249 26.3286 65.4688C27.3072 63.7126 28.1733 61.911 28.9611 60.0775L29.4064 59.0311L28.2712 58.7991C25.2081 58.1687 22.2027 57.3168 19.2823 56.2513L17.0951 55.4369C16.366 55.1548 15.6271 54.8637 14.9322 54.5543C14.2374 54.2449 13.5083 53.9219 12.8037 53.5852C12.0991 53.2486 11.3945 52.9164 10.6996 52.5661L10.6115 52.5206V52.6071C10.362 53.6034 10.0977 54.5907 9.88245 55.5871L9.2659 58.2895C8.77658 58.4715 8.28726 58.6535 7.77347 58.8218C7.19607 59.022 6.62356 59.2267 6.04616 59.4178C4.89136 59.8 3.72351 60.1503 2.54262 60.4688L0.986572 60.8919L2.29796 61.8427ZM9.74544 58.7126H9.78458V58.6762L10.7094 52.7618C15.9737 55.9534 21.7565 58.3361 27.8357 59.8182C26.2098 63.3299 24.2667 66.7071 22.0274 69.9137C20.3442 69.4133 18.6756 68.8719 17.0363 68.2668C15.3971 67.6617 13.7187 66.9792 12.104 66.2467C8.93679 64.8014 5.89687 63.1265 3.01237 61.2377C5.30799 60.5193 7.55622 59.6762 9.74544 58.7126Z" fill="#6E4115"/>
<path d="M7.02966 62.1613C7.02966 62.1613 7.56302 62.6162 8.42423 63.1713C9.48216 63.8865 10.5869 64.5399 11.732 65.1276C12.3535 65.4552 12.9994 65.76 13.611 66.0375C14.2227 66.315 14.805 66.5425 15.3188 66.72C15.8326 66.8974 16.2534 67.043 16.5617 67.134L17.051 67.2841L17.3935 66.0694L16.9286 65.9784C16.6302 65.9238 16.2044 65.8419 15.7004 65.7145C15.1964 65.5871 14.6093 65.437 13.9829 65.2595C13.3566 65.0821 12.7009 64.8455 12.0501 64.5953C10.853 64.1405 9.68632 63.6194 8.55635 63.0348C7.61685 62.5298 7.02966 62.1613 7.02966 62.1613Z" fill="#6E4115"/>
<path d="M8.25793 60.8828C8.25793 60.8828 8.79129 61.3059 9.65739 61.8837C10.7166 62.593 11.8213 63.2418 12.9652 63.8264C13.5915 64.1494 14.2326 64.4497 14.8442 64.7363C15.4559 65.0229 16.0382 65.2322 16.547 65.4097C17.0559 65.5871 17.4865 65.7372 17.7899 65.8282L18.2792 65.9738L18.6218 64.7591L18.1324 64.6681C17.8389 64.618 17.4131 64.5316 16.9091 64.4088C16.4051 64.2859 15.818 64.1312 15.1916 63.9538C14.5653 63.7764 13.9096 63.5443 13.2588 63.2941C12.0623 62.8449 10.8957 62.3299 9.76505 61.7518C8.84512 61.2468 8.25793 60.8828 8.25793 60.8828Z" fill="#6E4115"/>
<path d="M9.48608 59.5998C9.48608 59.5998 10.0243 60.0229 10.8904 60.5962C11.9521 61.298 13.0566 61.942 14.1983 62.5252C14.8246 62.8437 15.4656 63.1439 16.0773 63.4078C16.6889 63.6717 17.2712 63.9037 17.7801 64.0811C18.289 64.2586 18.7196 64.4042 19.023 64.4952L19.5123 64.6407L19.8548 63.426L19.39 63.3396C19.0915 63.285 18.6658 63.1985 18.1618 63.0757C17.6578 62.9528 17.0755 62.7982 16.4491 62.6207C15.8228 62.4433 15.1671 62.2158 14.5163 61.9701C13.3203 61.5251 12.1537 61.0146 11.0226 60.4415C10.0782 59.9638 9.48608 59.5998 9.48608 59.5998Z" fill="#6E4115"/>
<path d="M10.7144 58.3441C10.7144 58.3441 11.2526 58.7627 12.1187 59.3314C13.1845 60.0266 14.2922 60.6645 15.4363 61.2422C16.0626 61.5652 16.7036 61.861 17.3153 62.1203C17.9269 62.3796 18.5043 62.6162 19.0132 62.7891C19.5221 62.962 19.9478 63.1121 20.2512 63.2031L20.7405 63.3532L21.0831 62.1339L20.6182 62.0475C20.3197 61.9929 19.8989 61.911 19.3949 61.7882C18.8909 61.6653 18.3037 61.5106 17.6823 61.3332C17.0608 61.1558 16.4003 60.9283 15.725 60.6826C14.5284 60.2407 13.3602 59.7349 12.2264 59.1676C11.3064 58.6762 10.7144 58.3441 10.7144 58.3441Z" fill="#6E4115"/>
<path d="M11.9474 57.0384C11.9474 57.0384 12.4856 57.4569 13.3517 58.0211C14.4188 58.7104 15.5264 59.3438 16.6693 59.9183C17.2957 60.2368 17.9367 60.5325 18.5483 60.7918C19.16 61.0511 19.7374 61.2832 20.2463 61.456C20.7552 61.6289 21.1809 61.7745 21.4843 61.8655L21.9736 62.0157L22.3161 60.8009L21.8268 60.7099C21.5332 60.6553 21.1075 60.5734 20.6084 60.4506C20.1093 60.3278 19.5172 60.1776 18.8957 59.9956C18.2743 59.8136 17.6137 59.5953 16.9629 59.3541C15.7667 58.9164 14.5986 58.4151 13.4643 57.8528C12.5395 57.3933 11.9474 57.0384 11.9474 57.0384Z" fill="#6E4115"/>
<path d="M13.1755 55.7599C13.1755 55.7599 13.7187 56.1739 14.5848 56.7289C15.6521 57.4175 16.7614 58.048 17.9073 58.617C18.5336 58.931 19.1697 59.2221 19.7814 59.4815C20.393 59.7408 20.9704 59.9728 21.4793 60.1457C21.9882 60.3186 22.4091 60.4642 22.7124 60.5552L23.2018 60.7008L23.5443 59.486L23.0794 59.395C22.7809 59.345 22.3601 59.2585 21.8561 59.1402C21.3521 59.022 20.7698 58.8673 20.1484 58.6853C19.5269 58.5033 18.8664 58.2895 18.1911 58.0483C16.9951 57.617 15.827 57.1218 14.6924 56.5652C13.7676 56.1102 13.1755 55.7599 13.1755 55.7599Z" fill="#6E4115"/>
<path d="M91.5943 62.3796C91.5943 62.3796 90.9827 62.7209 90.0236 63.1622C88.8534 63.7031 87.6547 64.189 86.432 64.618C85.2172 65.0457 83.9772 65.4087 82.718 65.7054C82.2287 65.8282 81.7785 65.9101 81.4752 65.9647L80.9858 66.0557L81.3235 67.2705L81.8128 67.1203C82.1162 67.0339 82.5517 66.8928 83.0655 66.7109C84.3202 66.264 85.5456 65.749 86.7354 65.1685C87.911 64.6055 89.0543 63.9859 90.1606 63.3123C91.0316 62.7846 91.5943 62.3796 91.5943 62.3796Z" fill="#6E4115"/>
<path d="M90.3662 61.1239C90.3662 61.1239 89.7447 61.456 88.771 61.8928C87.7972 62.3295 86.4858 62.8755 85.1451 63.335C83.9183 63.7605 82.667 64.122 81.3969 64.4178C80.8831 64.5407 80.4476 64.6271 80.1442 64.6817L79.6549 64.7727L79.9974 65.9874L80.4868 65.8418C80.795 65.7508 81.2305 65.6098 81.7443 65.4278C82.9992 64.9863 84.2261 64.479 85.4191 63.9083C86.5941 63.3474 87.7373 62.7308 88.8444 62.0611C89.7888 61.5288 90.3662 61.1239 90.3662 61.1239Z" fill="#6E4115"/>
<path d="M89.1379 59.8636C89.1379 59.8636 88.5018 60.1958 87.5231 60.628C86.5445 61.0602 85.2086 61.597 83.8532 62.0566C82.6151 62.4771 81.3542 62.837 80.0756 63.1348C79.5569 63.2577 79.1214 63.3441 78.8132 63.3987L78.3239 63.4897L78.6664 64.7044L79.1557 64.5588C79.4689 64.4678 79.9093 64.3268 80.4279 64.1403C81.6918 63.6993 82.9284 63.1935 84.1321 62.6253C85.4386 62.0156 86.7011 61.3377 87.621 60.8054C88.5409 60.2731 89.1379 59.8636 89.1379 59.8636Z" fill="#6E4115"/>
<path d="M87.9097 58.608C87.9097 58.608 87.2638 58.931 86.2705 59.3586C85.2771 59.7863 83.9364 60.3186 82.5663 60.7736C81.1962 61.2285 79.8065 61.6107 78.7545 61.8518C78.2309 61.9747 77.7758 62.0611 77.4822 62.1157L76.9929 62.2067L77.3354 63.4214L77.8248 63.2758C78.1379 63.1803 78.5832 63.0438 79.1068 62.8573C80.378 62.413 81.6242 61.9088 82.8403 61.3468C84.1615 60.7372 85.4386 60.0684 86.3732 59.527C87.3078 58.9856 87.9097 58.608 87.9097 58.608Z" fill="#6E4115"/>
<path d="M86.6766 57.3523C86.6766 57.3523 86.0258 57.6708 85.0227 58.0939C84.0196 58.517 82.6593 59.0402 81.2794 59.4906C79.8995 59.941 78.4952 60.3277 77.4333 60.5643C76.9049 60.6871 76.4547 60.7781 76.1513 60.8327L75.662 60.9237L76.0045 62.143L76.4938 61.9929C76.807 61.8973 77.2572 61.7608 77.7807 61.5743C78.8377 61.2149 80.2274 60.6644 81.5485 60.0684C82.8697 59.4724 84.1713 58.7945 85.1206 58.2486C86.0698 57.7026 86.6766 57.3523 86.6766 57.3523Z" fill="#6E4115"/>
<path d="M85.4484 56.0966C85.4484 56.0966 84.7879 56.4105 83.7701 56.8246C82.7523 57.2386 81.3822 57.7618 79.9876 58.1894C78.5931 58.6171 77.1789 59.022 76.1122 59.2631C75.5788 59.386 75.1335 59.477 74.8204 59.5316L74.3311 59.6271L74.6736 60.8419L75.1629 60.6917C75.481 60.5962 75.9262 60.4551 76.4596 60.2732C77.5214 59.9092 78.9062 59.3632 80.2519 58.7672C81.5975 58.1712 82.9089 57.5024 83.8679 56.9792C84.827 56.456 85.4484 56.0966 85.4484 56.0966Z" fill="#6E4115"/>
<path d="M80.2078 60.3459C49.1016 71.1603 25.893 63.5307 18.6853 60.5097L16.4491 71.1785C16.4102 71.3642 16.4367 71.5567 16.5249 71.7272C16.6131 71.8977 16.7581 72.0372 16.9384 72.1249C21.176 74.154 46.7039 85.0776 82.0574 72.0794C82.265 72.0024 82.4367 71.8598 82.5423 71.6767C82.6479 71.4937 82.6807 71.2818 82.6348 71.0785L80.2078 60.3459Z" fill="#F7F4F0"/>
<path d="M48.0789 78.8173C31.0945 78.8173 19.6982 73.9629 16.6889 72.5161C16.4178 72.3818 16.2005 72.1699 16.0692 71.9117C15.9379 71.6536 15.8995 71.363 15.9598 71.083L18.3134 59.8364L18.8908 60.0775C25.3352 62.8073 48.8031 70.7645 80.0561 59.9092L80.5992 59.7181L83.1535 70.9783C83.2193 71.2897 83.1664 71.6126 83.0038 71.8915C82.8413 72.1705 82.5793 72.3881 82.2629 72.507C69.3791 77.2431 57.8213 78.8173 48.0789 78.8173ZM19.0572 61.1694L16.9384 71.2649C16.9178 71.3537 16.9291 71.4464 16.9707 71.5286C17.0122 71.6108 17.0817 71.678 17.1684 71.7199C21.8463 73.9629 46.9437 84.4997 81.8715 71.6562C81.9658 71.6204 82.0442 71.5559 82.094 71.4733C82.1437 71.3906 82.1619 71.2947 82.1455 71.2013L79.8359 60.9965C49.3805 71.3787 26.2796 64.0857 19.0572 61.1694Z" fill="#6E4115"/>
<path d="M71.6104 63.1758L69.9614 59.1676L80.384 60.1094L71.6104 63.1758Z" fill="#6E4115"/>
<path d="M27.2925 63.5261L29.4162 59.0356L17.5061 59.8591L27.2925 63.5261Z" fill="#6E4115"/>
<path d="M24.8018 64.6407C25.9175 64.9683 27.0429 65.2777 28.1782 65.5507C29.3134 65.8236 29.7 66.3787 29.47 67.2477C29.3476 67.7026 29.2302 68.1348 29.1079 68.5762C28.9464 69.1585 28.643 69.4861 28.1928 69.5316C28.3788 69.6643 28.5123 69.8506 28.5725 70.0612C28.6327 70.2719 28.6162 70.4952 28.5256 70.6963L28.1145 72.1612C27.8699 73.0393 27.1359 73.3441 25.9273 73.0393C24.7186 72.7345 23.4268 72.3842 22.1888 72.0202C23.0859 69.5755 23.9569 67.1157 24.8018 64.6407ZM27.1457 68.3532C27.2876 67.8983 27.4295 67.416 27.5665 66.9519C27.6252 66.7518 27.5371 66.6244 27.3023 66.5652L26.2355 66.2832C26.0251 66.9428 25.8098 67.6025 25.5994 68.2622L26.6955 68.5534C26.9402 68.6307 27.087 68.5625 27.1457 68.3532ZM26.167 71.5379C26.3138 71.0557 26.4655 70.5689 26.6123 70.0821C26.6325 70.0447 26.6431 70.0034 26.6431 69.9615C26.6431 69.9196 26.6325 69.8784 26.6123 69.8409C26.5419 69.7707 26.4495 69.7229 26.3481 69.7045L25.2324 69.4087L24.567 71.4333L25.712 71.7381C25.9566 71.8155 26.1132 71.7472 26.1768 71.5379H26.167Z" fill="#E31B27"/>
<path d="M31.3294 72.9256C32.3081 73.1121 33.2867 73.2804 34.2654 73.4397C34.1871 73.8582 34.1039 74.2814 34.0207 74.6999C32.3326 74.4315 30.6493 74.1176 28.9856 73.7582C29.6576 71.2407 30.31 68.7202 30.9429 66.1967C32.4109 66.5152 33.8788 66.7927 35.381 67.0293C35.3027 67.4524 35.2245 67.8755 35.1413 68.2941C34.267 68.1515 33.3944 67.9999 32.5234 67.8391C32.3864 68.4579 32.2445 69.0721 32.1026 69.6908C32.861 69.8364 33.6244 69.9729 34.3877 70.1003L34.1382 71.3605C33.3601 71.2331 32.5821 71.0966 31.8139 70.9465C31.6377 71.6016 31.486 72.2659 31.3294 72.9256Z" fill="#E31B27"/>
<path d="M38.3708 73.6899C38.4393 73.2349 38.5029 72.78 38.5665 72.2977C38.5762 72.2577 38.5764 72.2163 38.5671 72.1762C38.5578 72.1361 38.5393 72.0984 38.5127 72.0657C38.4312 72.0027 38.3299 71.9659 38.224 71.9611C37.813 71.9156 37.397 71.861 36.986 71.8064C35.8801 71.6608 35.4104 71.1239 35.5767 70.2231C35.6795 69.6408 35.7872 69.0584 35.8899 68.4761C36.0514 67.5661 36.6826 67.2386 37.7934 67.3842C38.3316 67.457 38.8699 67.5207 39.413 67.5798C40.5287 67.7026 41.0376 68.194 40.9446 69.0903C40.9055 69.4269 40.8712 69.7636 40.8321 70.1003C40.1764 70.0366 39.5207 69.9683 38.8748 69.8955L38.9775 69.1312C39.0069 68.931 38.8992 68.8127 38.6546 68.7854L38.1946 68.7308C37.9549 68.699 37.8178 68.7854 37.7836 68.9856L37.5781 70.3505C37.5679 70.3909 37.567 70.4329 37.5755 70.4736C37.5839 70.5144 37.6015 70.553 37.627 70.5871C37.7044 70.65 37.8032 70.6855 37.9059 70.6872L39.0999 70.8282C39.5579 70.8368 39.9973 70.9983 40.3379 71.2832C40.4608 71.4261 40.5496 71.5917 40.5986 71.7689C40.6475 71.9462 40.6554 72.1311 40.6217 72.3114L40.4162 74.1312C40.3183 75.0411 39.643 75.4278 38.405 75.2914C37.813 75.2231 37.216 75.1549 36.6239 75.0775C35.381 74.9137 34.8477 74.3678 35.014 73.4761C35.0727 73.1485 35.1364 72.8164 35.1951 72.4888C35.8703 72.5889 36.5505 72.6844 37.2258 72.7709L37.1083 73.5352C37.079 73.7354 37.1915 73.8537 37.4509 73.8855L37.9402 73.9447C38.1995 73.9811 38.3414 73.8946 38.3708 73.6899Z" fill="#E31B27"/>
<path d="M46.6501 68.0802L46.611 69.3632C46.0776 69.3632 45.5491 69.3314 45.0158 69.3086C44.8983 71.4651 44.7793 73.6247 44.6586 75.7872C43.9491 75.7554 43.2444 75.7145 42.5398 75.6644C42.7225 73.5079 42.9003 71.3514 43.0732 69.1949C42.5447 69.163 42.0211 69.1221 41.4976 69.0766C41.5416 68.6489 41.5856 68.2258 41.6248 67.7982C43.2934 67.9437 44.9717 68.0347 46.6501 68.0802Z" fill="#E31B27"/>
<path d="M49.7133 68.1121C50.8827 68.1121 52.0522 68.0666 53.2217 68.012C54.3912 67.9574 54.9392 68.3578 55.0175 69.254L55.2083 71.6016C55.2817 72.5115 54.719 73.0029 53.5153 73.062C52.9411 73.0893 52.3686 73.1121 51.7978 73.1303C51.832 74.0402 51.8614 74.9501 51.8956 75.86C51.1959 75.86 50.4913 75.8919 49.7867 75.901L49.7133 68.1121ZM53.1825 71.4879L53.0798 69.6089C53.0798 69.4042 52.9477 69.3086 52.7128 69.3177L51.6608 69.3587C51.6901 70.1867 51.7195 71.0193 51.7537 71.8473L52.8351 71.8063C53.0798 71.7972 53.1972 71.6926 53.1825 71.4879Z" fill="#E31B27"/>
<path d="M55.8542 67.8437C56.4855 67.7936 57.1167 67.7345 57.7479 67.6708C58.0546 70.2458 58.3694 72.824 58.6923 75.4051C57.9942 75.4779 57.2945 75.5416 56.5931 75.5962C56.3452 73.009 56.0989 70.4248 55.8542 67.8437Z" fill="#E31B27"/>
<path d="M63.5611 66.8792C63.6443 67.2977 63.7275 67.7208 63.8155 68.1394C63.1452 70.0184 62.4112 71.8928 61.5989 73.7536C62.6656 73.6126 63.7226 73.4488 64.7795 73.2668L65.0437 74.527C63.2528 74.8364 61.4472 75.0866 59.6612 75.2914L59.485 74.0175C60.3462 72.1764 61.1357 70.3232 61.8533 68.4579C60.8747 68.6004 59.9091 68.7263 58.9565 68.8355C58.8978 68.4124 58.8391 67.9847 58.7853 67.5616C60.3658 67.3796 61.9708 67.1521 63.5611 66.8792Z" fill="#E31B27"/>
<path d="M68.8703 65.7918C68.9877 66.2058 69.1002 66.6198 69.2177 67.0339C68.6957 68.9507 68.102 70.8646 67.4365 72.7754C68.4902 72.5662 69.5341 72.3372 70.5682 72.0885C70.6905 72.5025 70.808 72.9165 70.9303 73.3305C69.1655 73.7491 67.3876 74.116 65.5967 74.4315C65.5086 74.0129 65.4156 73.5944 65.3276 73.1758C66.042 71.2801 66.6944 69.3799 67.2849 67.4752C66.3356 67.6814 65.3814 67.8679 64.4223 68.0348L64.1581 66.7791C65.737 66.494 67.3077 66.1649 68.8703 65.7918Z" fill="#E31B27"/>
<path d="M75.9947 71.9929C75.7305 71.5789 75.4663 71.1649 75.2069 70.7509C74.5415 70.9465 73.8711 71.133 73.1958 71.315C73.2399 71.7927 73.2839 72.2704 73.3231 72.7436C72.6576 72.921 71.9872 73.0939 71.3168 73.2531C71.2581 70.5901 71.1521 67.9316 70.9988 65.2777C71.7768 65.0684 72.5499 64.8546 73.3182 64.6226C74.7992 66.9065 76.3634 69.1555 78.0107 71.3696C77.3404 71.5652 76.67 71.7745 75.9947 71.9929ZM73.0588 70.0229C73.5481 69.8955 74.0081 69.7636 74.4778 69.6271C73.8776 68.6505 73.2904 67.6708 72.7163 66.6881C72.8533 67.78 72.9659 68.8946 73.0735 70.0047L73.0588 70.0229Z" fill="#E31B27"/>
<path d="M33.9424 42.6798H31.7013C31.6514 42.681 31.6024 42.6669 31.5618 42.6398C31.5211 42.6127 31.4911 42.5741 31.4763 42.5297L30.7814 40.5461C30.7645 40.5032 30.7338 40.4662 30.6936 40.4401C30.6533 40.414 30.6054 40.4 30.5563 40.4C30.5072 40.4 30.4593 40.414 30.4191 40.4401C30.3788 40.4662 30.3482 40.5032 30.3312 40.5461L29.6364 42.5297C29.6208 42.5737 29.5907 42.6119 29.5502 42.6389C29.5097 42.6659 29.4611 42.6802 29.4113 42.6798H27.1702C27.119 42.6792 27.069 42.6937 27.0273 42.7214C26.9857 42.7491 26.9547 42.7884 26.9388 42.8337C26.9229 42.8789 26.9231 42.9277 26.9392 42.9729C26.9553 43.0181 26.9865 43.0573 27.0283 43.0848L28.8437 44.3086C28.8844 44.3356 28.9145 44.3742 28.9295 44.4185C28.9445 44.4628 28.9436 44.5105 28.9269 44.5543L28.2369 46.5379C28.2194 46.5826 28.218 46.6315 28.2331 46.677C28.2481 46.7225 28.2788 46.7622 28.3203 46.79C28.3619 46.8178 28.4121 46.8323 28.4633 46.8311C28.5145 46.8299 28.5639 46.8133 28.6039 46.7836L30.4144 45.5597C30.4554 45.5333 30.504 45.5192 30.5539 45.5192C30.6037 45.5192 30.6524 45.5333 30.6933 45.5597L32.5087 46.7836C32.5488 46.8133 32.5982 46.8299 32.6494 46.8311C32.7006 46.8323 32.7508 46.8178 32.7923 46.79C32.8339 46.7622 32.8645 46.7225 32.8796 46.677C32.8946 46.6315 32.8933 46.5826 32.8757 46.5379L32.1809 44.5543C32.1662 44.5099 32.1668 44.4624 32.1826 44.4183C32.1984 44.3743 32.2286 44.3359 32.269 44.3086L34.0843 43.0848C34.1261 43.0573 34.1574 43.0181 34.1735 42.9729C34.1896 42.9277 34.1897 42.8789 34.1739 42.8337C34.158 42.7884 34.127 42.7491 34.0853 42.7214C34.0437 42.6937 33.9936 42.6792 33.9424 42.6798Z" fill="#00722A"/>
<path d="M23.6911 42.6798H21.45C21.4 42.681 21.351 42.6669 21.3104 42.6398C21.2698 42.6127 21.2398 42.5741 21.2249 42.5297L20.5301 40.5461C20.5132 40.5032 20.4825 40.4662 20.4422 40.4401C20.402 40.414 20.3541 40.4 20.305 40.4C20.2559 40.4 20.208 40.414 20.1677 40.4401C20.1275 40.4662 20.0968 40.5032 20.0799 40.5461L19.3851 42.5297C19.3702 42.5741 19.3402 42.6127 19.2996 42.6398C19.2589 42.6669 19.2099 42.681 19.16 42.6798H16.9189C16.8677 42.6792 16.8176 42.6937 16.776 42.7214C16.7343 42.7491 16.7033 42.7884 16.6875 42.8337C16.6716 42.8789 16.6717 42.9277 16.6878 42.9729C16.7039 43.0181 16.7352 43.0573 16.777 43.0848L18.5924 44.3086C18.6327 44.3359 18.6629 44.3743 18.6787 44.4183C18.6945 44.4624 18.6951 44.5099 18.6804 44.5543L17.9856 46.5379C17.968 46.5826 17.9667 46.6315 17.9817 46.677C17.9968 46.7225 18.0274 46.7622 18.069 46.79C18.1106 46.8178 18.1608 46.8323 18.212 46.8311C18.2632 46.8299 18.3125 46.8133 18.3526 46.7836L20.1875 45.5597C20.2293 45.5329 20.2788 45.5186 20.3295 45.5186C20.3802 45.5186 20.4296 45.5329 20.4714 45.5597L22.2818 46.7836C22.3219 46.8133 22.3713 46.8299 22.4225 46.8311C22.4737 46.8323 22.5239 46.8178 22.5654 46.79C22.607 46.7622 22.6376 46.7225 22.6527 46.677C22.6677 46.6315 22.6664 46.5826 22.6488 46.5379L21.954 44.5543C21.9393 44.5099 21.9399 44.4624 21.9557 44.4183C21.9715 44.3743 22.0017 44.3359 22.0421 44.3086L23.8575 43.0848C23.9018 43.0564 23.9347 43.0151 23.9507 42.9673C23.9667 42.9195 23.965 42.8681 23.9458 42.8214C23.9266 42.7746 23.891 42.7353 23.8448 42.7096C23.7986 42.6839 23.7445 42.6734 23.6911 42.6798Z" fill="#00722A"/>
<path d="M13.4399 42.6798H11.1988C11.149 42.6802 11.1003 42.6659 11.0599 42.6389C11.0194 42.6119 10.9892 42.5737 10.9737 42.5297L10.2837 40.5461C10.2679 40.5016 10.2373 40.463 10.1965 40.4356C10.1557 40.4082 10.1066 40.3934 10.0562 40.3934C10.0058 40.3934 9.95676 40.4082 9.91592 40.4356C9.87508 40.463 9.84456 40.5016 9.82868 40.5461L9.13384 42.5297C9.11896 42.5741 9.08895 42.6127 9.04833 42.6398C9.00772 42.6669 8.95872 42.6809 8.90875 42.6798H6.66766C6.61647 42.6791 6.5664 42.6937 6.52475 42.7214C6.48311 42.7491 6.45209 42.7884 6.43624 42.8337C6.42038 42.8789 6.42051 42.9277 6.43662 42.9729C6.45273 43.0181 6.48396 43.0573 6.52575 43.0847L8.34114 44.3086C8.3815 44.3359 8.41169 44.3743 8.42748 44.4183C8.44327 44.4624 8.44387 44.5099 8.42921 44.5543L7.73438 46.5379C7.72044 46.5822 7.72161 46.6294 7.73773 46.673C7.75385 46.7166 7.78412 46.7545 7.82439 46.7815C7.86465 46.8084 7.91291 46.8231 7.96252 46.8235C8.01213 46.8238 8.06064 46.8099 8.10137 46.7836L9.91186 45.5597C9.95281 45.5333 10.0015 45.5191 10.0513 45.5191C10.1012 45.5191 10.1498 45.5333 10.1908 45.5597L12.0013 46.7836C12.0413 46.8132 12.0907 46.8299 12.1419 46.8311C12.1931 46.8322 12.2433 46.8178 12.2849 46.79C12.3264 46.7622 12.3571 46.7225 12.3721 46.677C12.3872 46.6315 12.3858 46.5826 12.3683 46.5379L11.6783 44.5543C11.6616 44.5105 11.6606 44.4628 11.6757 44.4185C11.6907 44.3741 11.7208 44.3356 11.7615 44.3086L13.5769 43.0847C13.6183 43.0575 13.6494 43.0187 13.6656 42.974C13.6818 42.9292 13.6823 42.8809 13.6671 42.8359C13.6519 42.7908 13.6217 42.7515 13.5808 42.7234C13.54 42.6954 13.4906 42.6801 13.4399 42.6798Z" fill="#00722A"/>
<path d="M93.3167 42.6798H91.0756C91.0256 42.681 90.9766 42.6669 90.936 42.6398C90.8954 42.6127 90.8654 42.5741 90.8505 42.5297L90.1606 40.5461C90.1437 40.5032 90.113 40.4662 90.0727 40.4401C90.0325 40.414 89.9846 40.4 89.9355 40.4C89.8864 40.4 89.8385 40.414 89.7982 40.4401C89.758 40.4662 89.7273 40.5032 89.7104 40.5461L89.0156 42.5297C89.0007 42.5741 88.9707 42.6127 88.9301 42.6398C88.8894 42.6669 88.8404 42.681 88.7905 42.6798H86.5494C86.4982 42.6792 86.4481 42.6937 86.4065 42.7214C86.3648 42.7491 86.3338 42.7884 86.3179 42.8337C86.3021 42.8789 86.3022 42.9277 86.3183 42.9729C86.3344 43.0181 86.3657 43.0573 86.4075 43.0848L88.2228 44.3086C88.2635 44.3356 88.2937 44.3742 88.3087 44.4185C88.3237 44.4628 88.3228 44.5105 88.306 44.5543L87.6161 46.5379C87.5985 46.5826 87.5972 46.6315 87.6122 46.677C87.6273 46.7225 87.6579 46.7622 87.6995 46.79C87.7411 46.8178 87.7913 46.8323 87.8424 46.8311C87.8936 46.8299 87.943 46.8133 87.9831 46.7836L89.7936 45.5597C89.8345 45.5333 89.8832 45.5192 89.933 45.5192C89.9829 45.5192 90.0315 45.5333 90.0725 45.5597L91.8879 46.7836C91.9279 46.8133 91.9773 46.8299 92.0285 46.8311C92.0797 46.8323 92.1299 46.8178 92.1715 46.79C92.213 46.7622 92.2437 46.7225 92.2587 46.677C92.2738 46.6315 92.2724 46.5826 92.2549 46.5379L91.5649 44.5543C91.5482 44.5105 91.5473 44.4628 91.5623 44.4185C91.5773 44.3742 91.6074 44.3356 91.6481 44.3086L93.4635 43.0848C93.5057 43.0571 93.5371 43.0175 93.5531 42.9718C93.5692 42.9262 93.5689 42.8769 93.5524 42.8314C93.5359 42.7859 93.5041 42.7466 93.4616 42.7193C93.4191 42.692 93.3683 42.6781 93.3167 42.6798Z" fill="#00722A"/>
<path d="M83.0654 42.6798H80.8243C80.7744 42.681 80.7254 42.6669 80.6847 42.6398C80.6441 42.6127 80.6141 42.5741 80.5992 42.5297L79.8848 40.5461C79.8679 40.5032 79.8372 40.4662 79.797 40.4401C79.7567 40.414 79.7088 40.4 79.6597 40.4C79.6106 40.4 79.5627 40.414 79.5225 40.4401C79.4822 40.4662 79.4516 40.5032 79.4346 40.5461L78.7398 42.5297C78.7249 42.5741 78.6949 42.6127 78.6543 42.6398C78.6137 42.6669 78.5647 42.681 78.5147 42.6798H76.2736C76.2224 42.6792 76.1724 42.6937 76.1307 42.7214C76.0891 42.7491 76.058 42.7884 76.0422 42.8337C76.0263 42.8789 76.0265 42.9277 76.0426 42.9729C76.0587 43.0181 76.0899 43.0573 76.1317 43.0848L77.9471 44.3086C77.9875 44.3359 78.0177 44.3743 78.0334 44.4183C78.0492 44.4624 78.0498 44.5099 78.0352 44.5543L77.3403 46.5379C77.3264 46.5822 77.3276 46.6294 77.3437 46.673C77.3598 46.7166 77.3901 46.7545 77.4304 46.7815C77.4706 46.8084 77.5189 46.8231 77.5685 46.8235C77.6181 46.8239 77.6666 46.8099 77.7073 46.7836L79.5178 45.5597C79.5595 45.5329 79.609 45.5186 79.6597 45.5186C79.7104 45.5186 79.7599 45.5329 79.8016 45.5597L81.6121 46.7836C81.6522 46.8133 81.7016 46.8299 81.7528 46.8311C81.804 46.8323 81.8542 46.8178 81.8957 46.79C81.9373 46.7622 81.9679 46.7225 81.983 46.677C81.998 46.6315 81.9967 46.5826 81.9791 46.5379L81.2892 44.5543C81.2724 44.5105 81.2715 44.4628 81.2865 44.4185C81.3015 44.3742 81.3317 44.3356 81.3724 44.3086L83.1878 43.0848C83.2284 43.0582 83.2592 43.0206 83.2758 42.9772C83.2925 42.9337 83.2942 42.8865 83.2808 42.842C83.2674 42.7976 83.2395 42.7581 83.2009 42.7291C83.1623 42.7 83.115 42.6828 83.0654 42.6798Z" fill="#00722A"/>
<path d="M72.8142 42.6798H70.5878C70.538 42.6802 70.4893 42.6659 70.4489 42.6389C70.4084 42.6119 70.3782 42.5737 70.3627 42.5297L69.6727 40.5461C69.6569 40.5016 69.6263 40.463 69.5855 40.4356C69.5446 40.4082 69.4956 40.3934 69.4452 40.3934C69.3948 40.3934 69.3458 40.4082 69.3049 40.4356C69.2641 40.463 69.2335 40.5016 69.2177 40.5461L68.5228 42.5297C68.508 42.5741 68.4779 42.6127 68.4373 42.6398C68.3967 42.6669 68.3477 42.6809 68.2977 42.6798H66.0567C66.0059 42.6801 65.9565 42.6954 65.9157 42.7234C65.8749 42.7515 65.8446 42.7908 65.8294 42.8359C65.8142 42.8809 65.8147 42.9292 65.8309 42.974C65.8471 43.0187 65.8782 43.0575 65.9197 43.0847L67.7301 44.3086C67.7705 44.3359 67.8007 44.3743 67.8165 44.4183C67.8323 44.4624 67.8329 44.5099 67.8182 44.5543L67.1234 46.5379C67.1094 46.5822 67.1106 46.6294 67.1267 46.673C67.1428 46.7166 67.1731 46.7545 67.2134 46.7815C67.2536 46.8084 67.3019 46.8231 67.3515 46.8235C67.4011 46.8238 67.4496 46.8099 67.4904 46.7836L69.3057 45.5597C69.3467 45.5333 69.3954 45.5191 69.4452 45.5191C69.495 45.5191 69.5437 45.5333 69.5847 45.5597L71.3951 46.7836C71.4352 46.8132 71.4846 46.8299 71.5358 46.8311C71.587 46.8322 71.6372 46.8178 71.6787 46.79C71.7203 46.7622 71.7509 46.7225 71.766 46.677C71.781 46.6315 71.7797 46.5826 71.7621 46.5379L71.0771 44.5543C71.0604 44.5105 71.0594 44.4628 71.0744 44.4185C71.0894 44.3741 71.1196 44.3356 71.1603 44.3086L72.9756 43.0847C73.0194 43.0565 73.0518 43.0156 73.0677 42.9684C73.0837 42.9212 73.0823 42.8704 73.0638 42.8241C73.0453 42.7777 73.0107 42.7383 72.9655 42.7122C72.9203 42.6861 72.8671 42.6747 72.8142 42.6798Z" fill="#00722A"/>
<path d="M60.5272 6.18298C59.9423 4.97628 58.8959 4.01474 57.5913 3.48507C57.1943 3.33956 56.7805 3.23727 56.3582 3.18025C55.9195 3.13298 55.4936 3.01278 55.1007 2.82538C54.746 2.54197 54.4493 2.20135 54.2248 1.81992C53.8489 1.13273 53.2353 0.583077 52.4828 0.259405C52.0157 0.0866724 51.5174 -0.00135325 51.0148 7.8217e-05C50.464 0.00621529 49.9175 0.0921733 49.3952 0.254855C48.693 0.506622 48.0486 0.880261 47.4966 1.35586C47.0562 1.73988 46.5459 2.04799 45.9895 2.26578C45.6415 2.36783 45.2777 2.41549 44.913 2.40681C44.683 2.40681 44.453 2.40681 44.2132 2.37952C43.9735 2.35222 43.7239 2.35677 43.4695 2.35677C42.673 2.32635 41.8871 2.53534 41.2284 2.95277C40.3537 3.53711 39.6688 4.33385 39.2485 5.25584C38.8282 6.17782 38.6888 7.18952 38.8454 8.18025C38.9409 9.18816 39.3266 10.1535 39.9621 10.9749C40.5975 11.7963 41.4592 12.4434 42.4566 12.8481L42.5104 12.8709H57.65C58.2118 12.8919 58.7699 12.7773 59.2699 12.5381C59.7698 12.2989 60.1946 11.9433 60.5028 11.506C61.5548 9.99099 61.2514 7.68435 60.5272 6.18298Z" fill="white"/>
<path d="M57.6501 12.8891H42.5153L42.4566 12.8481C41.4563 12.4429 40.5922 11.7941 39.9557 10.97C39.3192 10.146 38.9339 9.17741 38.8405 8.16661C38.6873 7.17759 38.8289 6.16843 39.2499 5.24907C39.671 4.32972 40.3553 3.53544 41.2284 2.95277C41.8873 2.53521 42.6727 2.32476 43.4695 2.35223C43.7191 2.35223 43.9588 2.35223 44.2084 2.37952C44.4579 2.40682 44.6977 2.37952 44.9081 2.37952C45.2745 2.38779 45.6398 2.34014 45.9895 2.23849C46.5467 2.02192 47.0572 1.71368 47.4966 1.32857C48.0463 0.852301 48.6891 0.478541 49.3903 0.227565C49.9159 0.0738255 50.4639 -0.00291977 51.0149 8.49232e-05C51.518 -0.00208663 52.0168 0.0875659 52.4828 0.263961C53.2423 0.580917 53.8622 1.13 54.2395 1.81992C54.4611 2.20586 54.7562 2.55117 55.1105 2.83903C55.5016 3.03053 55.9284 3.15097 56.368 3.1939C56.7904 3.25093 57.2041 3.35322 57.6011 3.49872C58.9052 4.02912 59.9513 4.99044 60.5371 6.19664C61.2613 7.698 61.5598 10.0046 60.5371 11.5333C60.2278 11.9706 59.8021 12.3261 59.3014 12.5653C58.8006 12.8045 58.2419 12.9191 57.6794 12.8982L57.6501 12.8891ZM42.6377 12.3113H57.6452C58.1043 12.3334 58.5616 12.2429 58.9713 12.0488C59.3809 11.8548 59.7285 11.5641 59.9792 11.2057C60.8649 9.92276 60.6398 7.82539 59.9792 6.41957C59.4532 5.34464 58.5194 4.48776 57.3565 4.01283C57.0004 3.88453 56.6292 3.79595 56.2506 3.74895C55.7162 3.69798 55.1994 3.54296 54.7337 3.29399C54.3187 2.97107 53.9719 2.57921 53.711 2.1384C53.3995 1.55249 52.8814 1.0836 52.2431 0.809913C51.3828 0.504362 50.4316 0.504362 49.5714 0.809913C48.9461 1.04275 48.3722 1.38049 47.8783 1.80627C47.3803 2.2339 46.8035 2.5745 46.1755 2.81174C45.7623 2.93136 45.331 2.98821 44.8983 2.98007C44.6537 2.98007 44.409 2.98007 44.1693 2.95732C43.9295 2.93457 43.6799 2.95732 43.4597 2.95732C42.7904 2.92722 42.1289 3.10137 41.5758 3.45323C40.7955 3.97945 40.1853 4.69459 39.8118 5.52083C39.4382 6.34707 39.3155 7.25275 39.4571 8.13931C39.5414 9.03458 39.8804 9.89286 40.4393 10.626C40.9983 11.3592 41.757 11.9409 42.6377 12.3113Z" fill="#B5855A"/>
<path d="M50.1096 9.92273C50.1096 9.92273 56.8525 9.92273 57.6452 12.5979C57.6727 12.6959 57.6858 12.7969 57.6843 12.8982V17.2703C57.6861 17.5299 57.6041 17.7841 57.4488 17.9998C57.2935 18.2156 57.0721 18.3831 56.8133 18.4805C55.8836 18.8263 53.9802 19.213 50.1096 19.213C46.2391 19.213 44.3356 18.8263 43.4059 18.4805C43.1476 18.3829 42.9269 18.2152 42.7725 17.9994C42.618 17.7836 42.5369 17.5296 42.5398 17.2703V12.8982C42.5367 12.7971 42.5482 12.6961 42.5741 12.5979C43.3717 9.91818 50.1096 9.92273 50.1096 9.92273Z" fill="#F7F4F0"/>
<path d="M57.9486 12.5206C57.7044 11.8249 57.1776 11.2454 56.4806 10.9055C56.5737 10.7761 56.654 10.639 56.7204 10.496C56.8108 10.2159 56.8309 9.92013 56.7791 9.6316C56.7257 9.86784 56.6262 10.093 56.4855 10.2958C56.3424 10.4413 56.1776 10.567 55.9962 10.6689C55.8053 10.587 55.6047 10.5051 55.3992 10.4323C55.5566 10.1529 55.6813 9.85849 55.7711 9.55426C55.8772 9.27971 55.9334 8.99065 55.9375 8.69894C55.9116 8.51166 55.8657 8.32725 55.8004 8.14843C55.8081 8.35012 55.7884 8.55189 55.7417 8.74898C55.6399 8.97597 55.5102 9.19124 55.3552 9.39047C55.1501 9.68804 54.9032 9.95885 54.6212 10.1958C53.9783 10.0304 53.3245 9.90425 52.6639 9.81814C52.7701 9.41487 52.8178 9.00022 52.8058 8.5852C52.8282 8.25527 52.7885 7.92424 52.6884 7.60703C52.6052 7.41595 52.4926 7.22942 52.3948 7.04288C52.4339 7.22942 52.4828 7.4114 52.5122 7.59793C52.5318 7.88888 52.492 8.18066 52.3948 8.45781C52.2902 8.90804 52.1014 9.33769 51.8369 9.72714C50.8583 9.63615 50.1635 9.6316 50.0754 9.6316C49.9873 9.6316 49.6986 9.6316 49.2191 9.6589C49.0791 9.54846 48.9572 9.41973 48.857 9.27673C48.7521 9.04875 48.6908 8.80548 48.6759 8.5579C48.5863 8.81628 48.5465 9.08737 48.5585 9.35863C48.5761 9.47468 48.6107 9.58795 48.6612 9.6953H48.5095C48.0656 9.29205 47.685 8.83256 47.3792 8.33042C47.2117 7.99514 47.1217 7.63091 47.115 7.26126C47.115 6.97919 47.115 6.69711 47.0856 6.41504C47.0465 6.72441 46.9682 7.01559 46.9046 7.32496C46.8409 7.692 46.8508 8.06684 46.9339 8.43051C47.0632 8.91662 47.2817 9.37835 47.5798 9.79539C46.8093 9.88916 46.0483 10.0413 45.3045 10.2503C45.0055 9.85533 44.7358 9.44188 44.4971 9.01286C44.3258 8.70349 44.1301 8.39866 43.9784 8.08019C43.8713 7.83818 43.791 7.58666 43.7387 7.32951C43.7279 7.61439 43.7493 7.89952 43.8023 8.18028C43.8855 8.53515 43.998 8.89002 44.1008 9.24034C44.2242 9.66971 44.3746 10.092 44.5509 10.5051C44.2817 10.6069 44.0201 10.7254 43.768 10.86C43.5499 10.7245 43.3538 10.5605 43.1857 10.3732C43.0114 10.1033 42.8873 9.80796 42.8187 9.49966C42.7888 9.85071 42.8286 10.2039 42.9362 10.5415C43.0379 10.7605 43.1712 10.9656 43.3325 11.1512C42.8207 11.4824 42.4419 11.9626 42.256 12.516C42.2208 12.6392 42.2044 12.7663 42.2071 12.8937V17.2658C42.2014 17.5881 42.302 17.9043 42.4953 18.1719C42.6886 18.4395 42.9654 18.6456 43.2885 18.7626C44.2182 19.1084 46.151 19.5179 50.1096 19.5179C54.0682 19.5179 55.9815 19.1084 56.9308 18.7626C57.2479 18.6446 57.5194 18.4403 57.7097 18.1765C57.9 17.9127 58.0003 17.6017 57.9975 17.284V12.8982C58.0002 12.7708 57.9837 12.6437 57.9486 12.5206ZM57.3761 17.2704C57.3779 17.4716 57.3151 17.6687 57.1957 17.8365C57.0762 18.0043 56.9056 18.1351 56.7057 18.2121C55.8298 18.5352 53.9753 18.9264 50.1145 18.9264C46.2538 18.9264 44.3992 18.5352 43.5282 18.2121C43.327 18.1363 43.155 18.006 43.0346 17.838C42.9141 17.67 42.8508 17.4722 42.853 17.2704V12.8982C42.8439 12.8241 42.8439 12.7494 42.853 12.6753C43.5772 10.2412 50.0264 10.2094 50.0901 10.2094C50.1537 10.2094 56.6029 10.2412 57.3271 12.6753C57.3386 12.7492 57.3386 12.8243 57.3271 12.8982L57.3761 17.2704Z" fill="#B5855A"/>
<path d="M40.1617 8.29856C40.0129 7.56243 40.0619 6.80353 40.3043 6.08923C40.5468 5.37493 40.9751 4.72733 41.5514 4.20392C43.0193 2.97098 45.0696 3.90365 46.7137 3.13477C47.4411 2.70526 48.1345 2.22785 48.7884 1.70619C49.5308 1.22215 50.4357 1.00254 51.3378 1.08745C51.7607 1.14761 52.1624 1.29913 52.5108 1.52986C52.8593 1.76058 53.1446 2.06406 53.344 2.41593C53.7942 3.08472 54.2346 3.78081 55.0518 4.06743C55.9717 4.41775 56.965 4.44505 57.7871 5.01375C58.4779 5.48246 59.0053 6.1295 59.304 6.87453C58.9579 6.25516 58.4539 5.72405 57.836 5.32767C57.0971 4.84541 56.28 4.76807 55.4237 4.59064C54.6183 4.43975 53.9007 4.01873 53.4077 3.40774C52.9183 2.82994 52.5856 2.07926 51.8222 1.77444C51.4263 1.64804 51.0051 1.60452 50.589 1.64699C50.1728 1.68946 49.7719 1.81687 49.4148 2.02011C48.6661 2.41138 48.0789 3.01193 47.3547 3.43049C46.5718 3.84933 45.6721 4.04103 44.7711 3.98099C43.9295 3.95824 43.0242 3.85815 42.2462 4.22212C40.6902 4.95006 40.1225 6.77899 40.1617 8.29856Z" fill="#B5855A"/>
<path d="M56.9993 17.3977C55.4139 18.1029 53.5447 18.253 51.8125 18.3349C49.8109 18.4552 47.8012 18.3743 45.8183 18.0938C44.9227 17.977 44.0495 17.7427 43.2249 17.3977C43.9551 17.5527 44.6984 17.6486 45.4464 17.6843C46.425 17.748 47.4037 17.7708 48.3823 17.7844C50.3983 17.8163 52.4241 17.8163 54.4401 17.7025C55.3016 17.6762 56.1585 17.5741 56.9993 17.3977Z" fill="#B5855A"/>
<path d="M43.0682 17.0019C44.5998 16.0419 46.4495 15.7053 48.2648 15.5278C50.3638 15.3176 52.4863 15.4562 54.5331 15.9373C55.4655 16.1524 56.3522 16.5124 57.1558 17.0019C55.4433 16.4212 53.6398 16.1061 51.8173 16.0692C49.7842 15.9507 47.7431 16.0377 45.7301 16.3286C44.8178 16.4564 43.9245 16.6823 43.0682 17.0019Z" fill="#B5855A"/>
</svg>
